<?xml version="1.0" encoding="utf-8" standalone="no"?>
<!DOCTYPE svg PUBLIC "-//W3C//DTD SVG 1.1//EN"
  "http://www.w3.org/Graphics/SVG/1.1/DTD/svg11.dtd">
<!-- Created with matplotlib (https://matplotlib.org/) -->
<svg height="288pt" version="1.1" viewBox="0 0 576 288" width="576pt" xmlns="http://www.w3.org/2000/svg" xmlns:xlink="http://www.w3.org/1999/xlink">
 <defs>
  <style type="text/css">
*{stroke-linecap:butt;stroke-linejoin:round;}
  </style>
 </defs>
 <g id="figure_1">
  <g id="patch_1">
   <path d="M 0 288 
L 576 288 
L 576 0 
L 0 0 
z
" style="fill:#ffffff;"/>
  </g>
  <g id="axes_1">
   <g id="patch_2">
    <path d="M 16.48 250.84 
L 492.22 250.84 
L 492.22 0 
L 16.48 0 
z
" style="fill:#ffffff;"/>
   </g>
   <g id="matplotlib.axis_1">
    <g id="xtick_1">
     <g id="line2d_1">
      <defs>
       <path d="M 0 0 
L 0 3.5 
" id="m2262199f06" style="stroke:#000000;stroke-width:0.8;"/>
      </defs>
      <g>
       <use style="stroke:#000000;stroke-width:0.8;" x="38.104545" xlink:href="#m2262199f06" y="250.84"/>
      </g>
     </g>
     <g id="text_1">
      <!-- 0 -->
      <defs>
       <path d="M 31.78125 66.40625 
Q 24.171875 66.40625 20.328125 58.90625 
Q 16.5 51.421875 16.5 36.375 
Q 16.5 21.390625 20.328125 13.890625 
Q 24.171875 6.390625 31.78125 6.390625 
Q 39.453125 6.390625 43.28125 13.890625 
Q 47.125 21.390625 47.125 36.375 
Q 47.125 51.421875 43.28125 58.90625 
Q 39.453125 66.40625 31.78125 66.40625 
z
M 31.78125 74.21875 
Q 44.046875 74.21875 50.515625 64.515625 
Q 56.984375 54.828125 56.984375 36.375 
Q 56.984375 17.96875 50.515625 8.265625 
Q 44.046875 -1.421875 31.78125 -1.421875 
Q 19.53125 -1.421875 13.0625 8.265625 
Q 6.59375 17.96875 6.59375 36.375 
Q 6.59375 54.828125 13.0625 64.515625 
Q 19.53125 74.21875 31.78125 74.21875 
z
" id="DejaVuSans-48"/>
      </defs>
      <g transform="translate(33.650795 268.477813)scale(0.14 -0.14)">
       <use xlink:href="#DejaVuSans-48"/>
      </g>
     </g>
    </g>
    <g id="xtick_2">
     <g id="line2d_2">
      <g>
       <use style="stroke:#000000;stroke-width:0.8;" x="124.892019" xlink:href="#m2262199f06" y="250.84"/>
      </g>
     </g>
     <g id="text_2">
      <!-- 2 -->
      <defs>
       <path d="M 19.1875 8.296875 
L 53.609375 8.296875 
L 53.609375 0 
L 7.328125 0 
L 7.328125 8.296875 
Q 12.9375 14.109375 22.625 23.890625 
Q 32.328125 33.6875 34.8125 36.53125 
Q 39.546875 41.84375 41.421875 45.53125 
Q 43.3125 49.21875 43.3125 52.78125 
Q 43.3125 58.59375 39.234375 62.25 
Q 35.15625 65.921875 28.609375 65.921875 
Q 23.96875 65.921875 18.8125 64.3125 
Q 13.671875 62.703125 7.8125 59.421875 
L 7.8125 69.390625 
Q 13.765625 71.78125 18.9375 73 
Q 24.125 74.21875 28.421875 74.21875 
Q 39.75 74.21875 46.484375 68.546875 
Q 53.21875 62.890625 53.21875 53.421875 
Q 53.21875 48.921875 51.53125 44.890625 
Q 49.859375 40.875 45.40625 35.40625 
Q 44.1875 33.984375 37.640625 27.21875 
Q 31.109375 20.453125 19.1875 8.296875 
z
" id="DejaVuSans-50"/>
      </defs>
      <g transform="translate(120.438269 268.477813)scale(0.14 -0.14)">
       <use xlink:href="#DejaVuSans-50"/>
      </g>
     </g>
    </g>
    <g id="xtick_3">
     <g id="line2d_3">
      <g>
       <use style="stroke:#000000;stroke-width:0.8;" x="211.679492" xlink:href="#m2262199f06" y="250.84"/>
      </g>
     </g>
     <g id="text_3">
      <!-- 4 -->
      <defs>
       <path d="M 37.796875 64.3125 
L 12.890625 25.390625 
L 37.796875 25.390625 
z
M 35.203125 72.90625 
L 47.609375 72.90625 
L 47.609375 25.390625 
L 58.015625 25.390625 
L 58.015625 17.1875 
L 47.609375 17.1875 
L 47.609375 0 
L 37.796875 0 
L 37.796875 17.1875 
L 4.890625 17.1875 
L 4.890625 26.703125 
z
" id="DejaVuSans-52"/>
      </defs>
      <g transform="translate(207.225742 268.477813)scale(0.14 -0.14)">
       <use xlink:href="#DejaVuSans-52"/>
      </g>
     </g>
    </g>
    <g id="xtick_4">
     <g id="line2d_4">
      <g>
       <use style="stroke:#000000;stroke-width:0.8;" x="298.466966" xlink:href="#m2262199f06" y="250.84"/>
      </g>
     </g>
     <g id="text_4">
      <!-- 6 -->
      <defs>
       <path d="M 33.015625 40.375 
Q 26.375 40.375 22.484375 35.828125 
Q 18.609375 31.296875 18.609375 23.390625 
Q 18.609375 15.53125 22.484375 10.953125 
Q 26.375 6.390625 33.015625 6.390625 
Q 39.65625 6.390625 43.53125 10.953125 
Q 47.40625 15.53125 47.40625 23.390625 
Q 47.40625 31.296875 43.53125 35.828125 
Q 39.65625 40.375 33.015625 40.375 
z
M 52.59375 71.296875 
L 52.59375 62.3125 
Q 48.875 64.0625 45.09375 64.984375 
Q 41.3125 65.921875 37.59375 65.921875 
Q 27.828125 65.921875 22.671875 59.328125 
Q 17.53125 52.734375 16.796875 39.40625 
Q 19.671875 43.65625 24.015625 45.921875 
Q 28.375 48.1875 33.59375 48.1875 
Q 44.578125 48.1875 50.953125 41.515625 
Q 57.328125 34.859375 57.328125 23.390625 
Q 57.328125 12.15625 50.6875 5.359375 
Q 44.046875 -1.421875 33.015625 -1.421875 
Q 20.359375 -1.421875 13.671875 8.265625 
Q 6.984375 17.96875 6.984375 36.375 
Q 6.984375 53.65625 15.1875 63.9375 
Q 23.390625 74.21875 37.203125 74.21875 
Q 40.921875 74.21875 44.703125 73.484375 
Q 48.484375 72.75 52.59375 71.296875 
z
" id="DejaVuSans-54"/>
      </defs>
      <g transform="translate(294.013216 268.477813)scale(0.14 -0.14)">
       <use xlink:href="#DejaVuSans-54"/>
      </g>
     </g>
    </g>
    <g id="xtick_5">
     <g id="line2d_5">
      <g>
       <use style="stroke:#000000;stroke-width:0.8;" x="385.254439" xlink:href="#m2262199f06" y="250.84"/>
      </g>
     </g>
     <g id="text_5">
      <!-- 8 -->
      <defs>
       <path d="M 31.78125 34.625 
Q 24.75 34.625 20.71875 30.859375 
Q 16.703125 27.09375 16.703125 20.515625 
Q 16.703125 13.921875 20.71875 10.15625 
Q 24.75 6.390625 31.78125 6.390625 
Q 38.8125 6.390625 42.859375 10.171875 
Q 46.921875 13.96875 46.921875 20.515625 
Q 46.921875 27.09375 42.890625 30.859375 
Q 38.875 34.625 31.78125 34.625 
z
M 21.921875 38.8125 
Q 15.578125 40.375 12.03125 44.71875 
Q 8.5 49.078125 8.5 55.328125 
Q 8.5 64.0625 14.71875 69.140625 
Q 20.953125 74.21875 31.78125 74.21875 
Q 42.671875 74.21875 48.875 69.140625 
Q 55.078125 64.0625 55.078125 55.328125 
Q 55.078125 49.078125 51.53125 44.71875 
Q 48 40.375 41.703125 38.8125 
Q 48.828125 37.15625 52.796875 32.3125 
Q 56.78125 27.484375 56.78125 20.515625 
Q 56.78125 9.90625 50.3125 4.234375 
Q 43.84375 -1.421875 31.78125 -1.421875 
Q 19.734375 -1.421875 13.25 4.234375 
Q 6.78125 9.90625 6.78125 20.515625 
Q 6.78125 27.484375 10.78125 32.3125 
Q 14.796875 37.15625 21.921875 38.8125 
z
M 18.3125 54.390625 
Q 18.3125 48.734375 21.84375 45.5625 
Q 25.390625 42.390625 31.78125 42.390625 
Q 38.140625 42.390625 41.71875 45.5625 
Q 45.3125 48.734375 45.3125 54.390625 
Q 45.3125 60.0625 41.71875 63.234375 
Q 38.140625 66.40625 31.78125 66.40625 
Q 25.390625 66.40625 21.84375 63.234375 
Q 18.3125 60.0625 18.3125 54.390625 
z
" id="DejaVuSans-56"/>
      </defs>
      <g transform="translate(380.800689 268.477813)scale(0.14 -0.14)">
       <use xlink:href="#DejaVuSans-56"/>
      </g>
     </g>
    </g>
    <g id="xtick_6">
     <g id="line2d_6">
      <g>
       <use style="stroke:#000000;stroke-width:0.8;" x="472.041912" xlink:href="#m2262199f06" y="250.84"/>
      </g>
     </g>
     <g id="text_6">
      <!-- 10 -->
      <defs>
       <path d="M 12.40625 8.296875 
L 28.515625 8.296875 
L 28.515625 63.921875 
L 10.984375 60.40625 
L 10.984375 69.390625 
L 28.421875 72.90625 
L 38.28125 72.90625 
L 38.28125 8.296875 
L 54.390625 8.296875 
L 54.390625 0 
L 12.40625 0 
z
" id="DejaVuSans-49"/>
      </defs>
      <g transform="translate(463.134412 268.477813)scale(0.14 -0.14)">
       <use xlink:href="#DejaVuSans-49"/>
       <use x="63.623047" xlink:href="#DejaVuSans-48"/>
      </g>
     </g>
    </g>
    <g id="text_7">
     <!-- t / s -->
     <defs>
      <path d="M 18.3125 70.21875 
L 18.3125 54.6875 
L 36.8125 54.6875 
L 36.8125 47.703125 
L 18.3125 47.703125 
L 18.3125 18.015625 
Q 18.3125 11.328125 20.140625 9.421875 
Q 21.96875 7.515625 27.59375 7.515625 
L 36.8125 7.515625 
L 36.8125 0 
L 27.59375 0 
Q 17.1875 0 13.234375 3.875 
Q 9.28125 7.765625 9.28125 18.015625 
L 9.28125 47.703125 
L 2.6875 47.703125 
L 2.6875 54.6875 
L 9.28125 54.6875 
L 9.28125 70.21875 
z
" id="DejaVuSans-116"/>
      <path id="DejaVuSans-32"/>
      <path d="M 25.390625 72.90625 
L 33.6875 72.90625 
L 8.296875 -9.28125 
L 0 -9.28125 
z
" id="DejaVuSans-47"/>
      <path d="M 44.28125 53.078125 
L 44.28125 44.578125 
Q 40.484375 46.53125 36.375 47.5 
Q 32.28125 48.484375 27.875 48.484375 
Q 21.1875 48.484375 17.84375 46.4375 
Q 14.5 44.390625 14.5 40.28125 
Q 14.5 37.15625 16.890625 35.375 
Q 19.28125 33.59375 26.515625 31.984375 
L 29.59375 31.296875 
Q 39.15625 29.25 43.1875 25.515625 
Q 47.21875 21.78125 47.21875 15.09375 
Q 47.21875 7.46875 41.1875 3.015625 
Q 35.15625 -1.421875 24.609375 -1.421875 
Q 20.21875 -1.421875 15.453125 -0.5625 
Q 10.6875 0.296875 5.421875 2 
L 5.421875 11.28125 
Q 10.40625 8.6875 15.234375 7.390625 
Q 20.0625 6.109375 24.8125 6.109375 
Q 31.15625 6.109375 34.5625 8.28125 
Q 37.984375 10.453125 37.984375 14.40625 
Q 37.984375 18.0625 35.515625 20.015625 
Q 33.0625 21.96875 24.703125 23.78125 
L 21.578125 24.515625 
Q 13.234375 26.265625 9.515625 29.90625 
Q 5.8125 33.546875 5.8125 39.890625 
Q 5.8125 47.609375 11.28125 51.796875 
Q 16.75 56 26.8125 56 
Q 31.78125 56 36.171875 55.265625 
Q 40.578125 54.546875 44.28125 53.078125 
z
" id="DejaVuSans-115"/>
     </defs>
     <g transform="translate(242.094453 285.267344)scale(0.13 -0.13)">
      <use xlink:href="#DejaVuSans-116"/>
      <use x="39.208984" xlink:href="#DejaVuSans-32"/>
      <use x="70.996094" xlink:href="#DejaVuSans-47"/>
      <use x="104.6875" xlink:href="#DejaVuSans-32"/>
      <use x="136.474609" xlink:href="#DejaVuSans-115"/>
     </g>
    </g>
   </g>
   <g id="matplotlib.axis_2">
    <g id="text_8">
     <!-- Pulse Signal -->
     <defs>
      <path d="M 19.671875 64.796875 
L 19.671875 37.40625 
L 32.078125 37.40625 
Q 38.96875 37.40625 42.71875 40.96875 
Q 46.484375 44.53125 46.484375 51.125 
Q 46.484375 57.671875 42.71875 61.234375 
Q 38.96875 64.796875 32.078125 64.796875 
z
M 9.8125 72.90625 
L 32.078125 72.90625 
Q 44.34375 72.90625 50.609375 67.359375 
Q 56.890625 61.8125 56.890625 51.125 
Q 56.890625 40.328125 50.609375 34.8125 
Q 44.34375 29.296875 32.078125 29.296875 
L 19.671875 29.296875 
L 19.671875 0 
L 9.8125 0 
z
" id="DejaVuSans-80"/>
      <path d="M 8.5 21.578125 
L 8.5 54.6875 
L 17.484375 54.6875 
L 17.484375 21.921875 
Q 17.484375 14.15625 20.5 10.265625 
Q 23.53125 6.390625 29.59375 6.390625 
Q 36.859375 6.390625 41.078125 11.03125 
Q 45.3125 15.671875 45.3125 23.6875 
L 45.3125 54.6875 
L 54.296875 54.6875 
L 54.296875 0 
L 45.3125 0 
L 45.3125 8.40625 
Q 42.046875 3.421875 37.71875 1 
Q 33.40625 -1.421875 27.6875 -1.421875 
Q 18.265625 -1.421875 13.375 4.4375 
Q 8.5 10.296875 8.5 21.578125 
z
M 31.109375 56 
z
" id="DejaVuSans-117"/>
      <path d="M 9.421875 75.984375 
L 18.40625 75.984375 
L 18.40625 0 
L 9.421875 0 
z
" id="DejaVuSans-108"/>
      <path d="M 56.203125 29.59375 
L 56.203125 25.203125 
L 14.890625 25.203125 
Q 15.484375 15.921875 20.484375 11.0625 
Q 25.484375 6.203125 34.421875 6.203125 
Q 39.59375 6.203125 44.453125 7.46875 
Q 49.3125 8.734375 54.109375 11.28125 
L 54.109375 2.78125 
Q 49.265625 0.734375 44.1875 -0.34375 
Q 39.109375 -1.421875 33.890625 -1.421875 
Q 20.796875 -1.421875 13.15625 6.1875 
Q 5.515625 13.8125 5.515625 26.8125 
Q 5.515625 40.234375 12.765625 48.109375 
Q 20.015625 56 32.328125 56 
Q 43.359375 56 49.78125 48.890625 
Q 56.203125 41.796875 56.203125 29.59375 
z
M 47.21875 32.234375 
Q 47.125 39.59375 43.09375 43.984375 
Q 39.0625 48.390625 32.421875 48.390625 
Q 24.90625 48.390625 20.390625 44.140625 
Q 15.875 39.890625 15.1875 32.171875 
z
" id="DejaVuSans-101"/>
      <path d="M 53.515625 70.515625 
L 53.515625 60.890625 
Q 47.90625 63.578125 42.921875 64.890625 
Q 37.9375 66.21875 33.296875 66.21875 
Q 25.25 66.21875 20.875 63.09375 
Q 16.5 59.96875 16.5 54.203125 
Q 16.5 49.359375 19.40625 46.890625 
Q 22.3125 44.4375 30.421875 42.921875 
L 36.375 41.703125 
Q 47.40625 39.59375 52.65625 34.296875 
Q 57.90625 29 57.90625 20.125 
Q 57.90625 9.515625 50.796875 4.046875 
Q 43.703125 -1.421875 29.984375 -1.421875 
Q 24.8125 -1.421875 18.96875 -0.25 
Q 13.140625 0.921875 6.890625 3.21875 
L 6.890625 13.375 
Q 12.890625 10.015625 18.65625 8.296875 
Q 24.421875 6.59375 29.984375 6.59375 
Q 38.421875 6.59375 43.015625 9.90625 
Q 47.609375 13.234375 47.609375 19.390625 
Q 47.609375 24.75 44.3125 27.78125 
Q 41.015625 30.8125 33.5 32.328125 
L 27.484375 33.5 
Q 16.453125 35.6875 11.515625 40.375 
Q 6.59375 45.0625 6.59375 53.421875 
Q 6.59375 63.09375 13.40625 68.65625 
Q 20.21875 74.21875 32.171875 74.21875 
Q 37.3125 74.21875 42.625 73.28125 
Q 47.953125 72.359375 53.515625 70.515625 
z
" id="DejaVuSans-83"/>
      <path d="M 9.421875 54.6875 
L 18.40625 54.6875 
L 18.40625 0 
L 9.421875 0 
z
M 9.421875 75.984375 
L 18.40625 75.984375 
L 18.40625 64.59375 
L 9.421875 64.59375 
z
" id="DejaVuSans-105"/>
      <path d="M 45.40625 27.984375 
Q 45.40625 37.75 41.375 43.109375 
Q 37.359375 48.484375 30.078125 48.484375 
Q 22.859375 48.484375 18.828125 43.109375 
Q 14.796875 37.75 14.796875 27.984375 
Q 14.796875 18.265625 18.828125 12.890625 
Q 22.859375 7.515625 30.078125 7.515625 
Q 37.359375 7.515625 41.375 12.890625 
Q 45.40625 18.265625 45.40625 27.984375 
z
M 54.390625 6.78125 
Q 54.390625 -7.171875 48.1875 -13.984375 
Q 42 -20.796875 29.203125 -20.796875 
Q 24.46875 -20.796875 20.265625 -20.09375 
Q 16.0625 -19.390625 12.109375 -17.921875 
L 12.109375 -9.1875 
Q 16.0625 -11.328125 19.921875 -12.34375 
Q 23.78125 -13.375 27.78125 -13.375 
Q 36.625 -13.375 41.015625 -8.765625 
Q 45.40625 -4.15625 45.40625 5.171875 
L 45.40625 9.625 
Q 42.625 4.78125 38.28125 2.390625 
Q 33.9375 0 27.875 0 
Q 17.828125 0 11.671875 7.65625 
Q 5.515625 15.328125 5.515625 27.984375 
Q 5.515625 40.671875 11.671875 48.328125 
Q 17.828125 56 27.875 56 
Q 33.9375 56 38.28125 53.609375 
Q 42.625 51.21875 45.40625 46.390625 
L 45.40625 54.6875 
L 54.390625 54.6875 
z
" id="DejaVuSans-103"/>
      <path d="M 54.890625 33.015625 
L 54.890625 0 
L 45.90625 0 
L 45.90625 32.71875 
Q 45.90625 40.484375 42.875 44.328125 
Q 39.84375 48.1875 33.796875 48.1875 
Q 26.515625 48.1875 22.3125 43.546875 
Q 18.109375 38.921875 18.109375 30.90625 
L 18.109375 0 
L 9.078125 0 
L 9.078125 54.6875 
L 18.109375 54.6875 
L 18.109375 46.1875 
Q 21.34375 51.125 25.703125 53.5625 
Q 30.078125 56 35.796875 56 
Q 45.21875 56 50.046875 50.171875 
Q 54.890625 44.34375 54.890625 33.015625 
z
" id="DejaVuSans-110"/>
      <path d="M 34.28125 27.484375 
Q 23.390625 27.484375 19.1875 25 
Q 14.984375 22.515625 14.984375 16.5 
Q 14.984375 11.71875 18.140625 8.90625 
Q 21.296875 6.109375 26.703125 6.109375 
Q 34.1875 6.109375 38.703125 11.40625 
Q 43.21875 16.703125 43.21875 25.484375 
L 43.21875 27.484375 
z
M 52.203125 31.203125 
L 52.203125 0 
L 43.21875 0 
L 43.21875 8.296875 
Q 40.140625 3.328125 35.546875 0.953125 
Q 30.953125 -1.421875 24.3125 -1.421875 
Q 15.921875 -1.421875 10.953125 3.296875 
Q 6 8.015625 6 15.921875 
Q 6 25.140625 12.171875 29.828125 
Q 18.359375 34.515625 30.609375 34.515625 
L 43.21875 34.515625 
L 43.21875 35.40625 
Q 43.21875 41.609375 39.140625 45 
Q 35.0625 48.390625 27.6875 48.390625 
Q 23 48.390625 18.546875 47.265625 
Q 14.109375 46.140625 10.015625 43.890625 
L 10.015625 52.203125 
Q 14.9375 54.109375 19.578125 55.046875 
Q 24.21875 56 28.609375 56 
Q 40.484375 56 46.34375 49.84375 
Q 52.203125 43.703125 52.203125 31.203125 
z
" id="DejaVuSans-97"/>
     </defs>
     <g transform="translate(9.776406 164.682031)rotate(-90)scale(0.13 -0.13)">
      <use xlink:href="#DejaVuSans-80"/>
      <use x="60.287109" xlink:href="#DejaVuSans-117"/>
      <use x="123.666016" xlink:href="#DejaVuSans-108"/>
      <use x="151.449219" xlink:href="#DejaVuSans-115"/>
      <use x="203.548828" xlink:href="#DejaVuSans-101"/>
      <use x="265.072266" xlink:href="#DejaVuSans-32"/>
      <use x="296.859375" xlink:href="#DejaVuSans-83"/>
      <use x="360.335938" xlink:href="#DejaVuSans-105"/>
      <use x="388.119141" xlink:href="#DejaVuSans-103"/>
      <use x="451.595703" xlink:href="#DejaVuSans-110"/>
      <use x="514.974609" xlink:href="#DejaVuSans-97"/>
      <use x="576.253906" xlink:href="#DejaVuSans-108"/>
     </g>
    </g>
   </g>
   <g id="line2d_7">
    <path clip-path="url(#pad4c839647)" d="M 38.104545 147.041602 
L 39.551003 149.701204 
L 40.997461 150.949047 
L 42.443919 152.360808 
L 45.336835 157.680016 
L 46.783293 159.310334 
L 48.229751 144.827972 
L 49.676209 112.165503 
L 51.122666 68.309367 
L 52.569124 39.035994 
L 54.015582 40.266124 
L 55.46204 60.122327 
L 56.908498 83.138757 
L 58.354956 100.94525 
L 59.801414 113.004289 
L 61.247872 117.785963 
L 62.69433 114.698104 
L 64.140787 106.773938 
L 65.587245 104.487945 
L 67.033703 107.676225 
L 68.480161 118.205361 
L 69.926619 126.229948 
L 72.819535 147.087378 
L 74.265993 149.701204 
L 82.94474 149.701204 
L 85.837656 155.020412 
L 87.284114 157.179403 
L 88.730572 157.680016 
L 90.177029 160.339621 
L 91.623487 158.344547 
L 93.069945 135.399008 
L 94.516403 95.494618 
L 95.962861 47.285062 
L 97.409319 21.146817 
L 98.855777 27.205859 
L 101.748693 69.431682 
L 103.195151 83.667425 
L 104.641608 92.693249 
L 106.088066 97.957813 
L 107.534524 99.168738 
L 108.980982 96.509133 
L 110.42744 97.793901 
L 111.873898 103.058463 
L 113.320356 112.158117 
L 116.213272 135.875992 
L 117.659729 142.733959 
L 119.106187 145.338924 
L 120.552645 147.041602 
L 126.338477 147.041602 
L 127.784935 147.670695 
L 129.231393 149.701204 
L 130.67785 152.360808 
L 132.124308 152.360808 
L 133.570766 155.020412 
L 135.017224 155.020412 
L 136.463682 155.321665 
L 137.91014 157.680016 
L 139.356598 157.871989 
L 140.803056 160.339621 
L 142.249514 160.256922 
L 143.695971 149.560918 
L 145.142429 117.972033 
L 146.588887 68.065701 
L 148.035345 22.991265 
L 149.481803 11.401818 
L 150.928261 26.378894 
L 152.374719 49.796989 
L 153.821177 68.495425 
L 155.267635 79.733404 
L 156.714092 88.06663 
L 158.16055 93.331194 
L 159.607008 94.422502 
L 161.053466 93.849532 
L 162.499924 98.486488 
L 163.946382 106.410655 
L 165.39284 118.8625 
L 166.839298 126.732033 
L 168.285756 135.502381 
L 169.732213 140.766944 
L 171.178671 144.381998 
L 172.625129 147.041602 
L 176.964503 147.041602 
L 178.410961 149.701204 
L 181.303877 152.360808 
L 184.196792 157.680016 
L 185.64325 158.783139 
L 187.089708 160.339621 
L 192.87554 160.339621 
L 194.321998 158.789043 
L 195.768455 140.058114 
L 197.214913 101.153479 
L 198.661371 54.383725 
L 200.107829 24.143112 
L 201.554287 28.214475 
L 203.000745 55.29784 
L 204.447203 70.698724 
L 205.893661 81.227857 
L 207.340119 88.813863 
L 208.786576 93.849532 
L 211.679492 93.849532 
L 213.12595 96.574106 
L 214.572408 104.508622 
L 216.018866 115.037758 
L 217.465324 123.00623 
L 218.911782 133.436427 
L 221.804697 144.119135 
L 223.251155 144.381998 
L 224.697613 147.041602 
L 229.036987 147.041602 
L 231.929903 152.360808 
L 233.376361 154.320437 
L 234.822818 156.925401 
L 236.269276 157.680016 
L 237.715734 157.680016 
L 239.162192 160.339621 
L 240.60865 162.026051 
L 242.055108 155.444234 
L 243.501566 130.682306 
L 244.948024 66.810481 
L 246.394482 35.338251 
L 247.840939 46.310416 
L 249.287397 70.02828 
L 250.733855 87.122991 
L 252.180313 101.667383 
L 253.626771 108.342232 
L 255.073229 109.807152 
L 256.519687 106.062144 
L 257.966145 100.79758 
L 259.412603 100.144864 
L 260.859061 108.990514 
L 263.751976 130.048786 
L 265.198434 137.918318 
L 266.644892 144.381998 
L 268.09135 147.041602 
L 270.984266 147.041602 
L 272.430724 144.381998 
L 273.877182 144.381998 
L 275.323639 147.041602 
L 276.770097 147.362054 
L 278.216555 149.701204 
L 281.109471 155.020412 
L 282.555929 155.12231 
L 284.002387 157.680016 
L 285.448845 155.027799 
L 286.895303 131.394091 
L 288.34176 66.693813 
L 289.788218 33.535161 
L 291.234676 32.226766 
L 292.681134 47.794534 
L 294.127592 68.572217 
L 295.57405 84.701149 
L 297.020508 95.620138 
L 298.466966 101.32921 
L 299.913424 104.487945 
L 301.359881 102.436762 
L 302.806339 101.828342 
L 304.252797 103.770247 
L 305.699255 113.581694 
L 307.145713 122.278193 
L 308.592171 131.980363 
L 310.038629 140.786139 
L 311.485087 144.381998 
L 312.931545 147.041602 
L 315.82446 147.041602 
L 317.270918 148.491755 
L 318.717376 149.701204 
L 320.163834 149.701204 
L 321.610292 152.360808 
L 323.05675 153.592407 
L 325.949666 158.802336 
L 327.396123 160.339621 
L 328.842581 162.999225 
L 331.735497 162.999225 
L 333.181955 154.283519 
L 334.628413 124.728108 
L 336.074871 79.212115 
L 337.521329 37.231436 
L 338.967787 25.330406 
L 340.414244 37.641972 
L 341.860702 58.700242 
L 343.30716 76.632254 
L 344.753618 86.694745 
L 346.200076 94.206899 
L 347.646534 99.168738 
L 349.092992 98.920647 
L 350.53945 96.315678 
L 351.985908 96.647947 
L 353.432365 101.996687 
L 357.771739 133.584095 
L 359.218197 141.453627 
L 360.664655 146.85258 
L 362.111113 149.457545 
L 363.557571 149.701204 
L 365.004029 152.360808 
L 367.896944 152.360808 
L 369.343402 150.218062 
L 370.78986 149.701204 
L 372.236318 149.701204 
L 373.682776 154.339638 
L 376.575692 159.549563 
L 378.02215 160.339621 
L 379.468607 160.339621 
L 380.915065 157.680016 
L 382.361523 157.680016 
L 383.807981 156.083664 
L 385.254439 141.992641 
L 386.700897 107.0619 
L 388.147355 59.680795 
L 389.593813 28.545259 
L 391.040271 27.346152 
L 392.486728 45.731532 
L 393.933186 66.789802 
L 395.379644 82.869992 
L 396.826102 92.294528 
L 398.27256 97.55909 
L 399.719018 101.828342 
L 402.611934 101.828342 
L 404.058392 105.319345 
L 405.504849 111.360684 
L 406.951307 121.167688 
L 408.397765 129.759343 
L 409.844223 139.675635 
L 411.290681 144.940203 
L 412.737139 147.545167 
L 414.183597 149.701204 
L 417.076513 149.701204 
L 418.522971 149.986215 
L 419.969428 152.360808 
L 422.862344 157.680016 
L 424.308802 157.746469 
L 425.75526 160.339621 
L 427.201718 160.339621 
L 430.094634 165.506723 
L 431.541092 155.640643 
L 432.987549 124.934844 
L 434.434007 83.079693 
L 435.880465 45.541037 
L 437.326923 37.997859 
L 438.773381 54.695312 
L 440.219839 77.878621 
L 441.666297 96.811868 
L 443.112755 110.535179 
L 444.559213 117.08747 
L 446.00567 115.879496 
L 448.898586 105.35036 
L 450.345044 106.230499 
L 453.23796 124.738436 
L 456.130876 143.246383 
L 457.577334 148.510957 
L 460.470249 151.000733 
L 461.916707 149.701204 
L 464.809623 149.701204 
L 466.256081 150.842725 
L 467.702539 152.360808 
L 469.148997 155.020412 
L 470.595455 155.020412 
L 470.595455 155.020412 
" style="fill:none;stroke:#000000;stroke-dasharray:5.55,2.4;stroke-dashoffset:0;stroke-width:1.5;"/>
   </g>
   <g id="line2d_8">
    <path clip-path="url(#pad4c839647)" d="M 38.104545 195.497952 
L 39.551003 184.124454 
L 40.997461 164.298832 
L 42.443919 141.312235 
L 43.890377 121.656072 
L 45.336835 109.937167 
L 46.783293 106.64048 
L 48.229751 107.840857 
L 49.676209 107.431056 
L 51.122666 101.110076 
L 54.015582 77.263465 
L 55.46204 70.341986 
L 56.908498 71.82876 
L 58.354956 81.072941 
L 61.247872 107.377223 
L 62.69433 116.499963 
L 64.140787 120.501586 
L 65.587245 120.330496 
L 67.033703 118.78324 
L 68.480161 119.649355 
L 69.926619 125.855707 
L 71.373077 137.405161 
L 72.819535 151.186775 
L 74.265993 163.079852 
L 75.712451 170.495357 
L 77.158908 173.467688 
L 78.605366 173.82171 
L 80.051824 173.314323 
L 81.498282 172.155111 
L 82.94474 168.781673 
L 84.391198 161.043724 
L 85.837656 148.273107 
L 87.284114 132.713207 
L 88.730572 118.540942 
L 90.177029 108.868006 
L 91.623487 103.914236 
L 93.069945 101.828142 
L 94.516403 101.520547 
L 95.962861 103.111259 
L 97.409319 105.596905 
L 98.855777 105.934146 
L 100.302235 101.554503 
L 103.195151 84.086568 
L 104.641608 78.325375 
L 106.088066 78.166774 
L 107.534524 83.956074 
L 108.980982 94.20255 
L 110.42744 106.249366 
L 111.873898 117.03354 
L 113.320356 123.337529 
L 114.766814 122.374281 
L 116.213272 113.925612 
L 117.659729 102.641995 
L 119.106187 97.060874 
L 120.552645 104.362308 
L 121.999103 124.598812 
L 123.445561 149.495711 
L 124.892019 167.428705 
L 126.338477 171.088651 
L 127.784935 161.937443 
L 129.231393 148.728859 
L 130.67785 141.196237 
L 132.124308 143.511164 
L 135.017224 160.546136 
L 136.463682 162.026829 
L 137.91014 154.842033 
L 139.356598 140.899696 
L 140.803056 124.39491 
L 142.249514 109.962318 
L 143.695971 100.805952 
L 145.142429 97.314467 
L 146.588887 97.39257 
L 148.035345 98.581258 
L 149.481803 99.950748 
L 150.928261 101.928728 
L 152.374719 104.552231 
L 153.821177 106.255873 
L 155.267635 104.7807 
L 156.714092 99.571582 
L 158.16055 93.066251 
L 159.607008 89.198691 
L 161.053466 90.423345 
L 162.499924 95.974407 
L 163.946382 102.598501 
L 165.39284 106.920666 
L 166.839298 107.747341 
L 168.285756 106.805842 
L 169.732213 107.33178 
L 171.178671 111.423555 
L 174.071587 124.94305 
L 175.518045 128.635463 
L 176.964503 129.013427 
L 178.410961 128.34717 
L 179.857419 130.137145 
L 181.303877 137.010963 
L 182.750334 148.78142 
L 184.196792 161.943797 
L 185.64325 171.468382 
L 187.089708 173.747387 
L 188.536166 168.472609 
L 189.982624 158.297854 
L 191.429082 146.864983 
L 192.87554 136.768632 
L 194.321998 128.755726 
L 195.768455 122.5128 
L 197.214913 117.563926 
L 198.661371 114.03748 
L 200.107829 112.629481 
L 201.554287 113.703874 
L 203.000745 116.372155 
L 204.447203 118.463375 
L 205.893661 117.651906 
L 207.340119 113.03018 
L 210.233034 98.289156 
L 211.679492 92.648056 
L 213.12595 90.016013 
L 214.572408 90.999068 
L 216.018866 95.942915 
L 217.465324 104.599622 
L 218.911782 115.876941 
L 221.804697 140.103898 
L 223.251155 150.364756 
L 224.697613 158.148382 
L 226.144071 163.10545 
L 227.590529 165.700159 
L 229.036987 167.367487 
L 230.483445 169.665742 
L 231.929903 172.79092 
L 233.376361 174.002438 
L 234.822818 168.730132 
L 236.269276 154.79206 
L 237.715734 135.632784 
L 239.162192 118.39197 
L 240.60865 108.319408 
L 242.055108 105.248762 
L 243.501566 104.994005 
L 244.948024 103.364554 
L 246.394482 99.19535 
L 247.840939 94.502826 
L 249.287397 92.065743 
L 250.733855 92.723061 
L 252.180313 94.803227 
L 253.626771 95.810338 
L 255.073229 94.656229 
L 256.519687 92.791014 
L 257.966145 93.354145 
L 259.412603 98.800507 
L 260.859061 108.815863 
L 262.305518 120.097707 
L 263.751976 128.359129 
L 265.198434 131.323692 
L 266.644892 130.718455 
L 268.09135 131.263494 
L 269.537808 136.927515 
L 270.984266 148.169985 
L 273.877182 175.911062 
L 275.323639 185.394624 
L 276.770097 188.142726 
L 278.216555 182.538975 
L 279.663013 168.606384 
L 281.109471 148.510731 
L 282.555929 126.5665 
L 284.002387 107.882334 
L 285.448845 95.704103 
L 286.895303 89.587822 
L 289.788218 83.467447 
L 291.234676 80.645961 
L 292.681134 80.133226 
L 294.127592 83.790289 
L 297.020508 97.10074 
L 298.466966 99.135711 
L 299.913424 95.377318 
L 302.806339 81.245463 
L 304.252797 78.000607 
L 305.699255 79.325403 
L 307.145713 85.007869 
L 308.592171 94.055004 
L 310.038629 104.461006 
L 311.485087 113.897693 
L 314.378002 129.04907 
L 315.82446 138.266547 
L 317.270918 148.954517 
L 318.717376 158.574849 
L 320.163834 165.009229 
L 321.610292 168.84963 
L 323.05675 173.1698 
L 324.503208 181.314106 
L 325.949666 194.106469 
L 327.396123 207.923315 
L 328.842581 215.519533 
L 330.289039 210.215146 
L 331.735497 190.585437 
L 334.628413 132.372602 
L 336.074871 110.390976 
L 337.521329 99.578995 
L 338.967787 99.463715 
L 340.414244 105.990115 
L 341.860702 113.326045 
L 343.30716 116.487661 
L 344.753618 113.610683 
L 346.200076 106.177647 
L 349.092992 88.161976 
L 350.53945 80.485115 
L 351.985908 74.653862 
L 353.432365 71.270113 
L 354.878823 69.656395 
L 356.325281 67.569899 
L 357.771739 63.481806 
L 359.218197 58.914475 
L 360.664655 57.370272 
L 362.111113 60.789433 
L 365.004029 74.132898 
L 366.450486 78.030017 
L 367.896944 80.669381 
L 369.343402 86.518685 
L 370.78986 99.570926 
L 372.236318 120.92783 
L 376.575692 201.822467 
L 378.02215 216.412767 
L 379.468607 215.341101 
L 380.915065 196.648159 
L 383.807981 132.935799 
L 385.254439 109.981412 
L 386.700897 99.491138 
L 388.147355 95.562047 
L 389.593813 89.320575 
L 391.040271 75.884527 
L 393.933186 39.256358 
L 395.379644 29.34701 
L 396.826102 30.563731 
L 398.27256 40.617036 
L 399.719018 53.508435 
L 401.165476 63.986619 
L 402.611934 70.800416 
L 404.058392 76.378468 
L 405.504849 83.846957 
L 406.951307 94.622955 
L 409.844223 120.60001 
L 411.290681 130.339914 
L 412.737139 135.865465 
L 414.183597 138.683973 
L 415.630055 141.837851 
L 417.076513 148.013323 
L 418.522971 158.463594 
L 419.969428 172.591892 
L 421.415886 187.841136 
L 422.862344 200.321656 
L 424.308802 206.133511 
L 425.75526 202.810422 
L 427.201718 190.393674 
L 428.648176 171.633776 
L 431.541092 131.195351 
L 435.880465 77.063879 
L 437.326923 60.94896 
L 438.773381 51.71555 
L 440.219839 51.406331 
L 441.666297 58.131658 
L 443.112755 67.782447 
L 444.559213 76.603088 
L 446.00567 82.64956 
L 448.898586 89.676612 
L 450.345044 96.845637 
L 451.791502 109.865464 
L 454.684418 145.576102 
L 456.130876 160.654013 
L 457.577334 170.484661 
L 459.023791 174.117497 
L 460.470249 171.558291 
L 463.363165 157.432122 
L 464.809623 154.84115 
L 466.256081 159.539174 
L 469.148997 180.580764 
L 470.595455 183.743938 
L 470.595455 183.743938 
" style="fill:none;stroke:#4477aa;stroke-linecap:square;stroke-width:1.5;"/>
   </g>
   <g id="line2d_9">
    <path clip-path="url(#pad4c839647)" d="M 38.104545 191.414487 
L 39.551003 184.271636 
L 40.997461 167.703868 
L 43.890377 120.693355 
L 45.336835 102.928306 
L 46.783293 94.798833 
L 48.229751 95.04594 
L 49.676209 98.191106 
L 51.122666 98.035653 
L 52.569124 91.726184 
L 54.015582 81.392107 
L 55.46204 72.295261 
L 56.908498 69.311781 
L 58.354956 73.952602 
L 61.247872 94.127186 
L 62.69433 101.507261 
L 64.140787 105.28665 
L 65.587245 107.654302 
L 67.033703 111.928453 
L 68.480161 120.637431 
L 69.926619 133.702402 
L 71.373077 147.870676 
L 72.819535 158.738199 
L 74.265993 163.951604 
L 75.712451 164.577626 
L 77.158908 163.80006 
L 78.605366 164.605614 
L 80.051824 168.237001 
L 81.498282 173.8374 
L 82.94474 178.832416 
L 84.391198 179.913872 
L 85.837656 174.606416 
L 87.284114 162.553981 
L 88.730572 145.506651 
L 91.623487 107.672427 
L 93.069945 92.290662 
L 94.516403 82.216867 
L 95.962861 78.469529 
L 97.409319 79.723371 
L 98.855777 82.840924 
L 100.302235 85.191122 
L 101.748693 86.070643 
L 103.195151 86.108655 
L 104.641608 86.357307 
L 106.088066 88.098631 
L 107.534524 92.452051 
L 108.980982 99.515958 
L 111.873898 115.964837 
L 113.320356 120.961922 
L 114.766814 121.612886 
L 117.659729 115.913033 
L 119.106187 117.969374 
L 120.552645 127.693879 
L 121.999103 143.714031 
L 123.445561 161.131048 
L 124.892019 174.259548 
L 126.338477 179.490239 
L 127.784935 177.364146 
L 129.231393 172.011925 
L 130.67785 168.311493 
L 132.124308 168.296529 
L 133.570766 169.44324 
L 135.017224 166.301486 
L 136.463682 154.097135 
L 137.91014 131.860679 
L 140.803056 76.474426 
L 142.249514 57.677681 
L 143.695971 50.730934 
L 145.142429 55.128357 
L 146.588887 67.897516 
L 149.481803 100.634271 
L 150.928261 108.319552 
L 152.374719 103.383822 
L 153.821177 87.565058 
L 155.267635 69.572234 
L 156.714092 60.55312 
L 158.16055 66.758613 
L 161.053466 102.275762 
L 162.499924 108.861062 
L 163.946382 101.812875 
L 165.39284 88.732892 
L 166.839298 81.36245 
L 168.285756 87.078819 
L 169.732213 104.419083 
L 171.178671 125.52606 
L 172.625129 142.473533 
L 174.071587 151.921704 
L 175.518045 155.352336 
L 176.964503 156.57245 
L 178.410961 159.551471 
L 179.857419 167.676219 
L 181.303877 183.098435 
L 184.196792 226.771039 
L 185.64325 239.438182 
L 187.089708 234.769807 
L 188.536166 211.54269 
L 191.429082 140.589199 
L 192.87554 113.64928 
L 194.321998 100.165907 
L 195.768455 98.731486 
L 198.661371 108.432892 
L 200.107829 108.705194 
L 201.554287 104.460825 
L 203.000745 98.933136 
L 204.447203 95.873154 
L 205.893661 96.889495 
L 207.340119 100.666096 
L 208.786576 103.955132 
L 210.233034 103.324282 
L 211.679492 96.951672 
L 214.572408 74.453476 
L 216.018866 68.421963 
L 217.465324 72.462676 
L 218.911782 87.094785 
L 221.804697 130.32021 
L 223.251155 148.177547 
L 224.697613 159.578617 
L 226.144071 164.531828 
L 227.590529 164.956514 
L 229.036987 163.941751 
L 230.483445 163.932807 
L 231.929903 164.63171 
L 233.376361 162.636434 
L 234.822818 154.178244 
L 236.269276 138.97445 
L 237.715734 121.308976 
L 239.162192 107.186947 
L 240.60865 100.42007 
L 242.055108 100.894342 
L 244.948024 109.779309 
L 246.394482 110.965159 
L 247.840939 108.409107 
L 249.287397 103.443196 
L 253.626771 85.992993 
L 255.073229 81.385713 
L 256.519687 79.499736 
L 257.966145 81.934034 
L 259.412603 88.958574 
L 262.305518 108.999154 
L 263.751976 116.562186 
L 265.198434 120.894067 
L 266.644892 123.322846 
L 268.09135 126.247839 
L 269.537808 131.533521 
L 270.984266 140.135733 
L 272.430724 152.64264 
L 273.877182 168.879355 
L 275.323639 186.499035 
L 276.770097 200.473866 
L 278.216555 204.714432 
L 279.663013 195.079805 
L 281.109471 172.144873 
L 284.002387 114.23992 
L 285.448845 96.451815 
L 286.895303 90.715595 
L 288.34176 92.959897 
L 289.788218 96.464937 
L 291.234676 96.291107 
L 292.681134 91.778653 
L 294.127592 85.928125 
L 295.57405 82.51138 
L 297.020508 83.197181 
L 298.466966 86.858146 
L 299.913424 91.203388 
L 302.806339 99.321648 
L 304.252797 105.160501 
L 305.699255 113.605493 
L 308.592171 134.523225 
L 310.038629 140.216478 
L 311.485087 138.685659 
L 312.931545 132.158719 
L 314.378002 127.153891 
L 315.82446 129.522509 
L 317.270918 139.826635 
L 318.717376 153.609249 
L 320.163834 165.877882 
L 321.610292 175.141983 
L 323.05675 183.4994 
L 325.949666 203.739373 
L 327.396123 210.413332 
L 328.842581 208.134128 
L 330.289039 194.603682 
L 331.735497 172.150231 
L 334.628413 122.204904 
L 336.074871 103.232692 
L 337.521329 90.180196 
L 338.967787 82.609745 
L 340.414244 79.767255 
L 341.860702 80.707026 
L 344.753618 86.838058 
L 346.200076 87.49521 
L 347.646534 84.645318 
L 350.53945 73.255932 
L 351.985908 70.832582 
L 353.432365 74.106814 
L 354.878823 82.602971 
L 356.325281 93.017131 
L 357.771739 101.66683 
L 359.218197 107.175872 
L 360.664655 110.225491 
L 362.111113 111.19191 
L 363.557571 109.319597 
L 365.004029 104.165884 
L 366.450486 97.067212 
L 367.896944 91.287101 
L 369.343402 90.786469 
L 370.78986 97.930424 
L 372.236318 112.626408 
L 376.575692 171.09195 
L 378.02215 180.302681 
L 379.468607 177.729716 
L 380.915065 163.763375 
L 382.361523 143.923783 
L 383.807981 126.493847 
L 385.254439 117.006948 
L 388.147355 111.276965 
L 389.593813 102.704654 
L 392.486728 73.087183 
L 393.933186 63.423879 
L 395.379644 62.320873 
L 396.826102 67.782262 
L 398.27256 74.610812 
L 399.719018 78.481235 
L 401.165476 78.937506 
L 402.611934 79.009611 
L 404.058392 82.285821 
L 405.504849 89.91264 
L 408.397765 109.910965 
L 409.844223 117.15154 
L 411.290681 121.504198 
L 412.737139 124.704085 
L 414.183597 129.521973 
L 415.630055 137.725401 
L 419.969428 170.542248 
L 421.415886 177.191141 
L 422.862344 179.924559 
L 424.308802 178.714454 
L 425.75526 173.398697 
L 427.201718 163.875111 
L 431.541092 126.685486 
L 432.987549 118.219353 
L 434.434007 110.696645 
L 435.880465 101.900422 
L 437.326923 91.641989 
L 438.773381 82.62094 
L 440.219839 77.947354 
L 441.666297 79.047626 
L 443.112755 84.441781 
L 444.559213 90.425292 
L 446.00567 93.352078 
L 447.452128 92.137348 
L 448.898586 89.447214 
L 450.345044 90.285731 
L 451.791502 98.35514 
L 453.23796 112.904818 
L 454.684418 128.889013 
L 456.130876 140.331419 
L 457.577334 144.094405 
L 459.023791 141.476393 
L 460.470249 137.04461 
L 461.916707 135.806955 
L 463.363165 140.523722 
L 464.809623 150.56703 
L 466.256081 162.593896 
L 467.702539 172.269754 
L 469.148997 176.004023 
L 470.595455 172.041584 
L 470.595455 172.041584 
" style="fill:none;stroke:#ee6677;stroke-linecap:square;stroke-width:1.5;"/>
   </g>
   <g id="patch_3">
    <path d="M 16.48 250.84 
L 16.48 -0 
" style="fill:none;stroke:#000000;stroke-linecap:square;stroke-linejoin:miter;stroke-width:0.8;"/>
   </g>
   <g id="patch_4">
    <path d="M 16.48 250.84 
L 492.22 250.84 
" style="fill:none;stroke:#000000;stroke-linecap:square;stroke-linejoin:miter;stroke-width:0.8;"/>
   </g>
   <g id="legend_1">
    <g id="line2d_10">
     <path d="M 460.721906 14.408281 
L 482.721906 14.408281 
" style="fill:none;stroke:#000000;stroke-dasharray:5.55,2.4;stroke-dashoffset:0;stroke-width:1.5;"/>
    </g>
    <g id="line2d_11"/>
    <g id="text_9">
     <!-- reference -->
     <defs>
      <path d="M 41.109375 46.296875 
Q 39.59375 47.171875 37.8125 47.578125 
Q 36.03125 48 33.890625 48 
Q 26.265625 48 22.1875 43.046875 
Q 18.109375 38.09375 18.109375 28.8125 
L 18.109375 0 
L 9.078125 0 
L 9.078125 54.6875 
L 18.109375 54.6875 
L 18.109375 46.1875 
Q 20.953125 51.171875 25.484375 53.578125 
Q 30.03125 56 36.53125 56 
Q 37.453125 56 38.578125 55.875 
Q 39.703125 55.765625 41.0625 55.515625 
z
" id="DejaVuSans-114"/>
      <path d="M 37.109375 75.984375 
L 37.109375 68.5 
L 28.515625 68.5 
Q 23.6875 68.5 21.796875 66.546875 
Q 19.921875 64.59375 19.921875 59.515625 
L 19.921875 54.6875 
L 34.71875 54.6875 
L 34.71875 47.703125 
L 19.921875 47.703125 
L 19.921875 0 
L 10.890625 0 
L 10.890625 47.703125 
L 2.296875 47.703125 
L 2.296875 54.6875 
L 10.890625 54.6875 
L 10.890625 58.5 
Q 10.890625 67.625 15.140625 71.796875 
Q 19.390625 75.984375 28.609375 75.984375 
z
" id="DejaVuSans-102"/>
      <path d="M 48.78125 52.59375 
L 48.78125 44.1875 
Q 44.96875 46.296875 41.140625 47.34375 
Q 37.3125 48.390625 33.40625 48.390625 
Q 24.65625 48.390625 19.8125 42.84375 
Q 14.984375 37.3125 14.984375 27.296875 
Q 14.984375 17.28125 19.8125 11.734375 
Q 24.65625 6.203125 33.40625 6.203125 
Q 37.3125 6.203125 41.140625 7.25 
Q 44.96875 8.296875 48.78125 10.40625 
L 48.78125 2.09375 
Q 45.015625 0.34375 40.984375 -0.53125 
Q 36.96875 -1.421875 32.421875 -1.421875 
Q 20.0625 -1.421875 12.78125 6.34375 
Q 5.515625 14.109375 5.515625 27.296875 
Q 5.515625 40.671875 12.859375 48.328125 
Q 20.21875 56 33.015625 56 
Q 37.15625 56 41.109375 55.140625 
Q 45.0625 54.296875 48.78125 52.59375 
z
" id="DejaVuSans-99"/>
     </defs>
     <g transform="translate(491.521906 18.258281)scale(0.11 -0.11)">
      <use xlink:href="#DejaVuSans-114"/>
      <use x="41.082031" xlink:href="#DejaVuSans-101"/>
      <use x="102.605469" xlink:href="#DejaVuSans-102"/>
      <use x="137.810547" xlink:href="#DejaVuSans-101"/>
      <use x="199.333984" xlink:href="#DejaVuSans-114"/>
      <use x="240.416016" xlink:href="#DejaVuSans-101"/>
      <use x="301.939453" xlink:href="#DejaVuSans-110"/>
      <use x="365.318359" xlink:href="#DejaVuSans-99"/>
      <use x="420.298828" xlink:href="#DejaVuSans-101"/>
     </g>
    </g>
    <g id="line2d_12">
     <path d="M 460.721906 30.554219 
L 482.721906 30.554219 
" style="fill:none;stroke:#4477aa;stroke-linecap:square;stroke-width:1.5;"/>
    </g>
    <g id="line2d_13"/>
    <g id="text_10">
     <!-- estimate at 30° -->
     <defs>
      <path d="M 52 44.1875 
Q 55.375 50.25 60.0625 53.125 
Q 64.75 56 71.09375 56 
Q 79.640625 56 84.28125 50.015625 
Q 88.921875 44.046875 88.921875 33.015625 
L 88.921875 0 
L 79.890625 0 
L 79.890625 32.71875 
Q 79.890625 40.578125 77.09375 44.375 
Q 74.3125 48.1875 68.609375 48.1875 
Q 61.625 48.1875 57.5625 43.546875 
Q 53.515625 38.921875 53.515625 30.90625 
L 53.515625 0 
L 44.484375 0 
L 44.484375 32.71875 
Q 44.484375 40.625 41.703125 44.40625 
Q 38.921875 48.1875 33.109375 48.1875 
Q 26.21875 48.1875 22.15625 43.53125 
Q 18.109375 38.875 18.109375 30.90625 
L 18.109375 0 
L 9.078125 0 
L 9.078125 54.6875 
L 18.109375 54.6875 
L 18.109375 46.1875 
Q 21.1875 51.21875 25.484375 53.609375 
Q 29.78125 56 35.6875 56 
Q 41.65625 56 45.828125 52.96875 
Q 50 49.953125 52 44.1875 
z
" id="DejaVuSans-109"/>
      <path d="M 40.578125 39.3125 
Q 47.65625 37.796875 51.625 33 
Q 55.609375 28.21875 55.609375 21.1875 
Q 55.609375 10.40625 48.1875 4.484375 
Q 40.765625 -1.421875 27.09375 -1.421875 
Q 22.515625 -1.421875 17.65625 -0.515625 
Q 12.796875 0.390625 7.625 2.203125 
L 7.625 11.71875 
Q 11.71875 9.328125 16.59375 8.109375 
Q 21.484375 6.890625 26.8125 6.890625 
Q 36.078125 6.890625 40.9375 10.546875 
Q 45.796875 14.203125 45.796875 21.1875 
Q 45.796875 27.640625 41.28125 31.265625 
Q 36.765625 34.90625 28.71875 34.90625 
L 20.21875 34.90625 
L 20.21875 43.015625 
L 29.109375 43.015625 
Q 36.375 43.015625 40.234375 45.921875 
Q 44.09375 48.828125 44.09375 54.296875 
Q 44.09375 59.90625 40.109375 62.90625 
Q 36.140625 65.921875 28.71875 65.921875 
Q 24.65625 65.921875 20.015625 65.03125 
Q 15.375 64.15625 9.8125 62.3125 
L 9.8125 71.09375 
Q 15.4375 72.65625 20.34375 73.4375 
Q 25.25 74.21875 29.59375 74.21875 
Q 40.828125 74.21875 47.359375 69.109375 
Q 53.90625 64.015625 53.90625 55.328125 
Q 53.90625 49.265625 50.4375 45.09375 
Q 46.96875 40.921875 40.578125 39.3125 
z
" id="DejaVuSans-51"/>
      <path d="M 25 67.921875 
Q 21.09375 67.921875 18.40625 65.203125 
Q 15.71875 62.5 15.71875 58.59375 
Q 15.71875 54.734375 18.40625 52.078125 
Q 21.09375 49.421875 25 49.421875 
Q 28.90625 49.421875 31.59375 52.078125 
Q 34.28125 54.734375 34.28125 58.59375 
Q 34.28125 62.453125 31.5625 65.1875 
Q 28.859375 67.921875 25 67.921875 
z
M 25 74.21875 
Q 28.125 74.21875 31 73.015625 
Q 33.890625 71.828125 35.984375 69.578125 
Q 38.234375 67.390625 39.359375 64.59375 
Q 40.484375 61.8125 40.484375 58.59375 
Q 40.484375 52.15625 35.96875 47.6875 
Q 31.453125 43.21875 24.90625 43.21875 
Q 18.3125 43.21875 13.90625 47.609375 
Q 9.515625 52 9.515625 58.59375 
Q 9.515625 65.140625 14 69.671875 
Q 18.5 74.21875 25 74.21875 
z
" id="DejaVuSans-176"/>
     </defs>
     <g transform="translate(491.521906 34.404219)scale(0.11 -0.11)">
      <use xlink:href="#DejaVuSans-101"/>
      <use x="61.523438" xlink:href="#DejaVuSans-115"/>
      <use x="113.623047" xlink:href="#DejaVuSans-116"/>
      <use x="152.832031" xlink:href="#DejaVuSans-105"/>
      <use x="180.615234" xlink:href="#DejaVuSans-109"/>
      <use x="278.027344" xlink:href="#DejaVuSans-97"/>
      <use x="339.306641" xlink:href="#DejaVuSans-116"/>
      <use x="378.515625" xlink:href="#DejaVuSans-101"/>
      <use x="440.039062" xlink:href="#DejaVuSans-32"/>
      <use x="471.826172" xlink:href="#DejaVuSans-97"/>
      <use x="533.105469" xlink:href="#DejaVuSans-116"/>
      <use x="572.314453" xlink:href="#DejaVuSans-32"/>
      <use x="604.101562" xlink:href="#DejaVuSans-51"/>
      <use x="667.724609" xlink:href="#DejaVuSans-48"/>
      <use x="731.347656" xlink:href="#DejaVuSans-176"/>
     </g>
    </g>
    <g id="line2d_14">
     <path d="M 460.721906 46.700156 
L 482.721906 46.700156 
" style="fill:none;stroke:#ee6677;stroke-linecap:square;stroke-width:1.5;"/>
    </g>
    <g id="line2d_15"/>
    <g id="text_11">
     <!-- estimate at 90° -->
     <defs>
      <path d="M 10.984375 1.515625 
L 10.984375 10.5 
Q 14.703125 8.734375 18.5 7.8125 
Q 22.3125 6.890625 25.984375 6.890625 
Q 35.75 6.890625 40.890625 13.453125 
Q 46.046875 20.015625 46.78125 33.40625 
Q 43.953125 29.203125 39.59375 26.953125 
Q 35.25 24.703125 29.984375 24.703125 
Q 19.046875 24.703125 12.671875 31.3125 
Q 6.296875 37.9375 6.296875 49.421875 
Q 6.296875 60.640625 12.9375 67.421875 
Q 19.578125 74.21875 30.609375 74.21875 
Q 43.265625 74.21875 49.921875 64.515625 
Q 56.59375 54.828125 56.59375 36.375 
Q 56.59375 19.140625 48.40625 8.859375 
Q 40.234375 -1.421875 26.421875 -1.421875 
Q 22.703125 -1.421875 18.890625 -0.6875 
Q 15.09375 0.046875 10.984375 1.515625 
z
M 30.609375 32.421875 
Q 37.25 32.421875 41.125 36.953125 
Q 45.015625 41.5 45.015625 49.421875 
Q 45.015625 57.28125 41.125 61.84375 
Q 37.25 66.40625 30.609375 66.40625 
Q 23.96875 66.40625 20.09375 61.84375 
Q 16.21875 57.28125 16.21875 49.421875 
Q 16.21875 41.5 20.09375 36.953125 
Q 23.96875 32.421875 30.609375 32.421875 
z
" id="DejaVuSans-57"/>
     </defs>
     <g transform="translate(491.521906 50.550156)scale(0.11 -0.11)">
      <use xlink:href="#DejaVuSans-101"/>
      <use x="61.523438" xlink:href="#DejaVuSans-115"/>
      <use x="113.623047" xlink:href="#DejaVuSans-116"/>
      <use x="152.832031" xlink:href="#DejaVuSans-105"/>
      <use x="180.615234" xlink:href="#DejaVuSans-109"/>
      <use x="278.027344" xlink:href="#DejaVuSans-97"/>
      <use x="339.306641" xlink:href="#DejaVuSans-116"/>
      <use x="378.515625" xlink:href="#DejaVuSans-101"/>
      <use x="440.039062" xlink:href="#DejaVuSans-32"/>
      <use x="471.826172" xlink:href="#DejaVuSans-97"/>
      <use x="533.105469" xlink:href="#DejaVuSans-116"/>
      <use x="572.314453" xlink:href="#DejaVuSans-32"/>
      <use x="604.101562" xlink:href="#DejaVuSans-57"/>
      <use x="667.724609" xlink:href="#DejaVuSans-48"/>
      <use x="731.347656" xlink:href="#DejaVuSans-176"/>
     </g>
    </g>
   </g>
  </g>
 </g>
 <defs>
  <clipPath id="pad4c839647">
   <rect height="250.84" width="475.74" x="16.48" y="0"/>
  </clipPath>
 </defs>
</svg>
